<svg xmlns="http://www.w3.org/2000/svg" xmlns:xlink="http://www.w3.org/1999/xlink" version="1.1" width="256" height="256" viewBox="0 0 256 256" xml:space="preserve">

<defs>
</defs>
<g style="stroke: none; stroke-width: 0; stroke-dasharray: none; stroke-linecap: butt; stroke-linejoin: miter; stroke-miterlimit: 10; fill: none; fill-rule: nonzero; opacity: 1;" transform="translate(1.4065934065934016 1.4065934065934016) scale(2.81 2.81)" >
	<path d="M 45.011 90 c -0.708 0 -1.418 -0.022 -2.132 -0.066 c -17.062 -1.059 -30.943 -15.272 -30.943 -31.685 c 0 -10.55 3.26 -15.824 6.414 -20.925 c 2.104 -3.404 4.091 -6.619 5.203 -11.378 c 0.116 -0.494 0.584 -0.822 1.088 -0.766 c 0.505 0.059 0.886 0.486 0.886 0.994 v 13.836 c 0 6.095 4.958 11.053 11.053 11.053 c 3.264 0 6.341 -1.433 8.443 -3.932 c 2.115 -2.515 3.005 -5.817 2.441 -9.061 c -0.793 -4.56 -1.902 -8.391 -2.881 -11.769 c -2.357 -8.138 -4.22 -14.565 -0.756 -25.599 C 43.958 0.28 44.344 0.008 44.792 0 c 0.442 0.006 0.827 0.301 0.949 0.726 c 1.57 5.507 7.036 12.136 12.823 19.154 c 9.141 11.084 19.5 23.648 19.5 37.041 c 0 9.092 -3.801 17.878 -10.428 24.107 C 61.434 86.857 53.469 90 45.011 90 z M 23.526 32.158 c -1.05 2.293 -2.274 4.274 -3.476 6.218 c -3.144 5.087 -6.115 9.892 -6.115 19.873 c 0 15.376 13.039 28.695 29.067 29.689 c 8.692 0.549 16.95 -2.432 23.264 -8.367 c 6.318 -5.938 9.798 -13.982 9.798 -22.649 c 0 -12.675 -10.117 -24.944 -19.043 -35.769 c -4.968 -6.024 -9.705 -11.769 -12.098 -16.951 c -2.124 8.759 -0.467 14.479 1.579 21.542 c 0.994 3.429 2.119 7.315 2.932 11.983 c 0.665 3.827 -0.385 7.724 -2.881 10.691 c -2.483 2.952 -6.118 4.644 -9.974 4.644 c -7.197 0 -13.053 -5.855 -13.053 -13.053 V 32.158 z" style="stroke: none; stroke-width: 1; stroke-dasharray: none; stroke-linecap: butt; stroke-linejoin: miter; stroke-miterlimit: 10; fill: rgb(0,0,0); fill-rule: nonzero; opacity: 1;" transform=" matrix(1 0 0 1 0 0) " stroke-linecap="round" />
</g>
</svg>