<svg xmlns="http://www.w3.org/2000/svg" xmlns:xlink="http://www.w3.org/1999/xlink" version="1.1" width="256" height="256" viewBox="0 0 256 256" xml:space="preserve">

<defs>
</defs>
<g style="stroke: none; stroke-width: 0; stroke-dasharray: none; stroke-linecap: butt; stroke-linejoin: miter; stroke-miterlimit: 10; fill: none; fill-rule: nonzero; opacity: 1;" transform="translate(1.4065934065934016 1.4065934065934016) scale(2.81 2.81)" >
	<path d="M 43.371 90 c -0.178 0 -0.357 -0.01 -0.538 -0.031 l -26.04 -3.06 c -1.203 -0.142 -2.279 -0.742 -3.03 -1.693 c -0.75 -0.95 -1.086 -2.137 -0.945 -3.339 l 4.604 -39.18 c 0.349 -2.97 1.731 -5.744 3.892 -7.811 l 12.698 -12.145 c 0.981 -0.938 2.316 -1.386 3.664 -1.227 c 1.348 0.158 2.542 0.903 3.279 2.042 l 9.538 14.757 c 1.622 2.512 2.324 5.531 1.976 8.5 l -4.604 39.18 c -0.142 1.203 -0.742 2.279 -1.693 3.029 C 45.364 89.662 44.386 90 43.371 90 z M 37.145 23.484 c -0.649 0 -1.273 0.248 -1.749 0.703 L 22.698 36.332 c -1.826 1.746 -2.994 4.09 -3.289 6.599 l -4.604 39.179 c -0.079 0.673 0.109 1.336 0.528 1.867 s 1.021 0.867 1.693 0.946 l 26.04 3.06 c 1.392 0.162 2.65 -0.834 2.813 -2.221 l 4.604 -39.18 c 0.294 -2.509 -0.298 -5.06 -1.669 -7.182 l -9.538 -14.757 c -0.412 -0.637 -1.08 -1.053 -1.833 -1.142 C 37.344 23.49 37.244 23.484 37.145 23.484 z" style="stroke: none; stroke-width: 1; stroke-dasharray: none; stroke-linecap: butt; stroke-linejoin: miter; stroke-miterlimit: 10; fill: rgb(0,0,0); fill-rule: nonzero; opacity: 1;" transform=" matrix(1 0 0 1 0 0) " stroke-linecap="round" />
	<path d="M 36.508 35.172 c -0.143 0 -0.288 -0.008 -0.433 -0.025 c -0.979 -0.115 -1.854 -0.604 -2.466 -1.378 c -0.611 -0.773 -0.884 -1.739 -0.769 -2.718 c 0.238 -2.021 2.076 -3.471 4.096 -3.235 c 2.021 0.237 3.472 2.075 3.235 4.096 l 0 0 C 39.951 33.787 38.353 35.172 36.508 35.172 z M 36.505 29.79 c -0.845 0 -1.577 0.635 -1.678 1.494 c -0.053 0.448 0.072 0.89 0.353 1.245 c 0.28 0.354 0.681 0.579 1.129 0.631 c 0.926 0.113 1.768 -0.556 1.876 -1.482 c 0.109 -0.926 -0.556 -1.768 -1.482 -1.876 C 36.637 29.794 36.57 29.79 36.505 29.79 z M 39.178 31.795 h 0.01 H 39.178 z" style="stroke: none; stroke-width: 1; stroke-dasharray: none; stroke-linecap: butt; stroke-linejoin: miter; stroke-miterlimit: 10; fill: rgb(0,0,0); fill-rule: nonzero; opacity: 1;" transform=" matrix(1 0 0 1 0 0) " stroke-linecap="round" />
	<path d="M 49.977 85.328 c -1.313 0 -2.563 -0.52 -3.499 -1.474 l 1.426 -1.402 c 0.644 0.656 1.535 0.961 2.445 0.854 l 22.301 -2.767 c 1.599 -0.198 2.738 -1.661 2.54 -3.26 l -5.197 -41.895 c -0.097 -0.774 -0.488 -1.465 -1.104 -1.945 c -0.615 -0.479 -1.382 -0.691 -2.156 -0.595 l -19.889 2.467 l -0.246 -1.984 l 19.889 -2.467 c 1.306 -0.165 2.595 0.194 3.631 1.002 c 1.037 0.808 1.698 1.972 1.859 3.277 l 5.197 41.895 c 0.334 2.693 -1.585 5.156 -4.278 5.49 L 50.595 85.29 C 50.388 85.315 50.182 85.328 49.977 85.328 z" style="stroke: none; stroke-width: 1; stroke-dasharray: none; stroke-linecap: butt; stroke-linejoin: miter; stroke-miterlimit: 10; fill: rgb(0,0,0); fill-rule: nonzero; opacity: 1;" transform=" matrix(1 0 0 1 0 0) " stroke-linecap="round" />
	<path d="M 55.882 43.593 c -0.146 0 -0.291 -0.009 -0.438 -0.026 c -2.021 -0.237 -3.472 -2.075 -3.235 -4.096 c 0.237 -2.021 2.067 -3.474 4.096 -3.235 c 0.979 0.115 1.855 0.604 2.467 1.378 c 0.611 0.774 0.884 1.739 0.769 2.719 c -0.115 0.979 -0.604 1.854 -1.378 2.465 C 57.505 43.318 56.708 43.593 55.882 43.593 z M 55.873 38.211 c -0.845 0 -1.576 0.634 -1.678 1.494 c -0.108 0.925 0.557 1.767 1.481 1.876 c 0.452 0.053 0.892 -0.072 1.246 -0.352 s 0.578 -0.681 0.631 -1.129 v -0.001 c 0.053 -0.448 -0.072 -0.891 -0.352 -1.245 c -0.28 -0.354 -0.682 -0.579 -1.13 -0.631 C 56.005 38.215 55.938 38.211 55.873 38.211 z" style="stroke: none; stroke-width: 1; stroke-dasharray: none; stroke-linecap: butt; stroke-linejoin: miter; stroke-miterlimit: 10; fill: rgb(0,0,0); fill-rule: nonzero; opacity: 1;" transform=" matrix(1 0 0 1 0 0) " stroke-linecap="round" />
	<path d="M 48.303 7.382 c -0.146 0 -0.291 -0.009 -0.438 -0.026 c -0.979 -0.115 -1.855 -0.604 -2.466 -1.378 c -0.611 -0.773 -0.884 -1.739 -0.769 -2.718 c 0.115 -0.979 0.604 -1.855 1.378 -2.466 c 0.773 -0.611 1.742 -0.882 2.717 -0.769 c 0.979 0.115 1.855 0.604 2.467 1.378 c 0.61 0.773 0.884 1.739 0.769 2.718 l 0 0 c -0.114 0.979 -0.604 1.855 -1.378 2.466 C 49.926 7.107 49.129 7.382 48.303 7.382 z M 48.292 2 c -0.378 0 -0.743 0.126 -1.044 0.364 c -0.354 0.28 -0.579 0.681 -0.631 1.13 c -0.053 0.448 0.072 0.891 0.352 1.245 c 0.28 0.354 0.681 0.579 1.129 0.631 c 0.455 0.052 0.892 -0.072 1.246 -0.353 c 0.354 -0.279 0.578 -0.681 0.631 -1.129 V 3.888 c 0.053 -0.448 -0.072 -0.891 -0.352 -1.245 c -0.28 -0.354 -0.682 -0.579 -1.13 -0.631 C 48.426 2.004 48.358 2 48.292 2 z" style="stroke: none; stroke-width: 1; stroke-dasharray: none; stroke-linecap: butt; stroke-linejoin: miter; stroke-miterlimit: 10; fill: rgb(0,0,0); fill-rule: nonzero; opacity: 1;" transform=" matrix(1 0 0 1 0 0) " stroke-linecap="round" />
	<path d="M 55.313 38.211 c -0.32 0 -0.636 -0.154 -0.829 -0.439 c -4.706 -6.941 -7.095 -16.184 -7.457 -28.947 c -5.406 6.01 -8.426 12.604 -9.212 20.088 c -0.058 0.549 -0.548 0.945 -1.099 0.89 c -0.549 -0.058 -0.948 -0.55 -0.89 -1.099 c 0.913 -8.693 4.658 -16.231 11.448 -23.047 c 0.285 -0.285 0.714 -0.371 1.086 -0.22 c 0.373 0.152 0.619 0.514 0.622 0.917 c 0.112 13.632 2.387 23.258 7.158 30.295 c 0.31 0.457 0.19 1.079 -0.267 1.389 C 55.701 38.156 55.506 38.211 55.313 38.211 z" style="stroke: none; stroke-width: 1; stroke-dasharray: none; stroke-linecap: butt; stroke-linejoin: miter; stroke-miterlimit: 10; fill: rgb(0,0,0); fill-rule: nonzero; opacity: 1;" transform=" matrix(1 0 0 1 0 0) " stroke-linecap="round" />
	<rect x="52.33" y="74.63" rx="0" ry="0" width="17.68" height="2" style="stroke: none; stroke-width: 1; stroke-dasharray: none; stroke-linecap: butt; stroke-linejoin: miter; stroke-miterlimit: 10; fill: rgb(0,0,0); fill-rule: nonzero; opacity: 1;" transform=" matrix(0.9924 -0.1231 0.1231 0.9924 -8.8431 8.1028) "/>
	<rect x="53.89" y="67.74" rx="0" ry="0" width="15.15" height="2" style="stroke: none; stroke-width: 1; stroke-dasharray: none; stroke-linecap: butt; stroke-linejoin: miter; stroke-miterlimit: 10; fill: rgb(0,0,0); fill-rule: nonzero; opacity: 1;" transform=" matrix(0.9924 -0.1231 0.1231 0.9924 -7.9925 8.0874) "/>
	<rect x="33.81" y="29.26" rx="0" ry="0" width="2" height="33.29" style="stroke: none; stroke-width: 1; stroke-dasharray: none; stroke-linecap: butt; stroke-linejoin: miter; stroke-miterlimit: 10; fill: rgb(0,0,0); fill-rule: nonzero; opacity: 1;" transform=" matrix(0.1162 -0.9932 0.9932 0.1162 -14.8261 75.1472) "/>
	<rect x="57.26" y="60.73" rx="0" ry="0" width="10.79" height="2" style="stroke: none; stroke-width: 1; stroke-dasharray: none; stroke-linecap: butt; stroke-linejoin: miter; stroke-miterlimit: 10; fill: rgb(0,0,0); fill-rule: nonzero; opacity: 1;" transform=" matrix(0.9924 -0.1231 0.1231 0.9924 -7.1213 8.181) "/>
	<path d="M 36.931 77.933 c -0.417 0 -0.833 -0.126 -1.192 -0.376 l -4.166 -2.887 l -4.826 1.784 c -0.752 0.283 -1.583 0.12 -2.169 -0.428 c -0.587 -0.548 -0.808 -1.365 -0.576 -2.134 l 1.459 -4.854 L 22.272 65 c -0.502 -0.626 -0.603 -1.467 -0.264 -2.194 s 1.048 -1.19 1.851 -1.209 l 5.068 -0.111 l 2.856 -4.28 c 0.439 -0.671 1.212 -1.027 2.004 -0.929 c 0.797 0.098 1.457 0.629 1.722 1.387 l 1.672 4.784 l 4.953 1.394 c 0.775 0.212 1.351 0.833 1.504 1.621 s -0.149 1.579 -0.788 2.065 l -4.033 3.068 l 0.205 5.142 c 0.038 0.803 -0.375 1.542 -1.077 1.931 C 37.627 77.845 37.278 77.933 36.931 77.933 z M 31.52 72.653 c 0.42 0 0.837 0.126 1.192 0.372 l 4.167 2.888 l 0.146 -0.08 l 0 0 l -0.242 -5.063 c -0.033 -0.688 0.275 -1.348 0.822 -1.766 l 4.035 -3.069 l -0.032 -0.165 l 0 0 l -4.89 -1.334 c -0.665 -0.182 -1.198 -0.679 -1.425 -1.329 l -1.672 -4.784 c -0.007 -0.02 -0.02 -0.055 -0.077 -0.063 l -2.87 4.279 c -0.378 0.576 -1.015 0.93 -1.705 0.945 l -5.067 0.111 l -0.07 0.151 l 0 0 l 3.171 3.954 c 0.431 0.539 0.569 1.253 0.371 1.912 l -1.459 4.854 l 0.123 0.114 l 0 0 l 4.74 -1.795 C 31.019 72.698 31.27 72.653 31.52 72.653 z" style="stroke: none; stroke-width: 1; stroke-dasharray: none; stroke-linecap: butt; stroke-linejoin: miter; stroke-miterlimit: 10; fill: rgb(0,0,0); fill-rule: nonzero; opacity: 1;" transform=" matrix(1 0 0 1 0 0) " stroke-linecap="round" />
</g>
</svg>