<svg xmlns="http://www.w3.org/2000/svg" xmlns:xlink="http://www.w3.org/1999/xlink" version="1.1" width="256" height="256" viewBox="0 0 256 256" xml:space="preserve">

<defs>
</defs>
<g style="stroke: none; stroke-width: 0; stroke-dasharray: none; stroke-linecap: butt; stroke-linejoin: miter; stroke-miterlimit: 10; fill: none; fill-rule: nonzero; opacity: 1;" transform="translate(1.4065934065934016 1.4065934065934016) scale(2.81 2.81)" >
	<path d="M 45 90 C 20.187 90 0 69.813 0 45 C 0 20.187 20.187 0 45 0 c 24.813 0 45 20.187 45 45 C 90 69.813 69.813 90 45 90 z M 45 2 C 21.29 2 2 21.29 2 45 c 0 23.71 19.29 43 43 43 c 23.71 0 43 -19.29 43 -43 C 88 21.29 68.71 2 45 2 z" style="stroke: none; stroke-width: 1; stroke-dasharray: none; stroke-linecap: butt; stroke-linejoin: miter; stroke-miterlimit: 10; fill: rgb(0,0,0); fill-rule: nonzero; opacity: 1;" transform=" matrix(1 0 0 1 0 0) " stroke-linecap="round" />
	<path d="M 32.172 66.794 h -9.981 c -0.552 0 -1 -0.447 -1 -1 V 36.376 c 0 -0.552 0.448 -1 1 -1 h 9.981 c 1.328 0 2.408 1.08 2.408 2.408 v 26.602 C 34.58 65.714 33.5 66.794 32.172 66.794 z M 23.191 64.794 h 8.981 c 0.225 0 0.408 -0.184 0.408 -0.408 V 37.784 c 0 -0.225 -0.183 -0.408 -0.408 -0.408 h -8.981 V 64.794 z" style="stroke: none; stroke-width: 1; stroke-dasharray: none; stroke-linecap: butt; stroke-linejoin: miter; stroke-miterlimit: 10; fill: rgb(0,0,0); fill-rule: nonzero; opacity: 1;" transform=" matrix(1 0 0 1 0 0) " stroke-linecap="round" />
	<path d="M 47.371 66.795 c -3.608 0 -7.194 -0.898 -9.444 -2.388 c -0.766 -0.508 -1.591 -0.776 -2.388 -0.776 H 33.58 c -0.552 0 -1 -0.447 -1 -1 V 39.404 c 0 -0.552 0.448 -1 1 -1 h 3.776 c 4.112 -0.24 8.666 -9.476 9.468 -16.868 c 0.084 -0.771 0.5 -1.461 1.141 -1.896 c 0.604 -0.412 1.348 -0.539 2.04 -0.346 c 1.556 0.431 2.813 1.694 3.634 3.654 c 1.508 3.597 1.374 9.1 0.319 12.404 h 10.17 c 2.581 0 4.681 2.1 4.681 4.681 c 0 1.492 -0.701 2.822 -1.792 3.68 c 1.091 0.857 1.792 2.188 1.792 3.68 c 0 1.762 -0.979 3.3 -2.421 4.099 c 0.82 0.844 1.327 1.995 1.327 3.263 c 0 1.91 -1.15 3.558 -2.796 4.283 c 0.72 0.823 1.156 1.9 1.156 3.077 c 0 2.58 -2.1 4.68 -4.681 4.68 H 49.626 c -0.037 0 -0.073 -0.002 -0.108 -0.006 h -1.604 C 47.732 66.793 47.552 66.795 47.371 66.795 z M 34.58 61.631 h 0.959 c 1.191 0 2.399 0.384 3.493 1.109 c 2.007 1.328 5.484 2.128 8.855 2.048 h 1.738 c 0.037 0 0.073 0.002 0.109 0.006 h 11.659 c 1.479 0 2.681 -1.202 2.681 -2.68 c 0 -1.479 -1.202 -2.681 -2.681 -2.681 c -0.553 0 -1 -0.447 -1 -1 s 0.447 -1 1 -1 h 1.641 c 1.478 0 2.68 -1.202 2.68 -2.68 c 0 -1.479 -1.202 -2.681 -2.68 -2.681 c -0.553 0 -1 -0.447 -1 -1 s 0.447 -1 1 -1 h 1.093 c 1.479 0 2.681 -1.202 2.681 -2.681 c 0 -1.478 -1.202 -2.68 -2.681 -2.68 c -0.553 0 -1 -0.448 -1 -1 s 0.447 -1 1 -1 c 1.479 0 2.681 -1.202 2.681 -2.68 s -1.202 -2.681 -2.681 -2.681 H 52.464 c -0.354 0 -0.683 -0.188 -0.862 -0.493 c -0.18 -0.306 -0.184 -0.683 -0.012 -0.993 c 1.33 -2.395 1.693 -8.594 0.204 -12.146 c -0.584 -1.394 -1.365 -2.234 -2.322 -2.499 c -0.163 -0.046 -0.298 0.015 -0.385 0.073 c -0.151 0.104 -0.255 0.274 -0.274 0.458 c -0.821 7.56 -5.555 18.312 -11.399 18.65 l -2.833 0.001 V 61.631 z" style="stroke: none; stroke-width: 1; stroke-dasharray: none; stroke-linecap: butt; stroke-linejoin: miter; stroke-miterlimit: 10; fill: rgb(0,0,0); fill-rule: nonzero; opacity: 1;" transform=" matrix(1 0 0 1 0 0) " stroke-linecap="round" />
	<path d="M 64.128 44.713 h -6.297 c -0.553 0 -1 -0.448 -1 -1 s 0.447 -1 1 -1 h 6.297 c 0.553 0 1 0.448 1 1 S 64.681 44.713 64.128 44.713 z" style="stroke: none; stroke-width: 1; stroke-dasharray: none; stroke-linecap: butt; stroke-linejoin: miter; stroke-miterlimit: 10; fill: rgb(0,0,0); fill-rule: nonzero; opacity: 1;" transform=" matrix(1 0 0 1 0 0) " stroke-linecap="round" />
	<path d="M 63.035 52.073 h -5.204 c -0.553 0 -1 -0.447 -1 -1 s 0.447 -1 1 -1 h 5.204 c 0.553 0 1 0.447 1 1 S 63.588 52.073 63.035 52.073 z" style="stroke: none; stroke-width: 1; stroke-dasharray: none; stroke-linecap: butt; stroke-linejoin: miter; stroke-miterlimit: 10; fill: rgb(0,0,0); fill-rule: nonzero; opacity: 1;" transform=" matrix(1 0 0 1 0 0) " stroke-linecap="round" />
	<path d="M 61.395 59.434 h -3.563 c -0.553 0 -1 -0.447 -1 -1 s 0.447 -1 1 -1 h 3.563 c 0.553 0 1 0.447 1 1 S 61.947 59.434 61.395 59.434 z" style="stroke: none; stroke-width: 1; stroke-dasharray: none; stroke-linecap: butt; stroke-linejoin: miter; stroke-miterlimit: 10; fill: rgb(0,0,0); fill-rule: nonzero; opacity: 1;" transform=" matrix(1 0 0 1 0 0) " stroke-linecap="round" />
</g>
</svg>