<svg xmlns="http://www.w3.org/2000/svg" xmlns:xlink="http://www.w3.org/1999/xlink" version="1.1" width="256" height="256" viewBox="0 0 256 256" xml:space="preserve">

<defs>
</defs>
<g style="stroke: none; stroke-width: 0; stroke-dasharray: none; stroke-linecap: butt; stroke-linejoin: miter; stroke-miterlimit: 10; fill: none; fill-rule: nonzero; opacity: 1;" transform="translate(1.4065934065934016 1.4065934065934016) scale(2.81 2.81)" >
	<path d="M 33.294 90 c -8.276 0 -15.235 -4.867 -16.082 -11.658 c -0.937 -7.509 5.946 -14.57 15.343 -15.742 c 9.392 -1.167 17.801 3.984 18.738 11.492 l 0 0 c 0.936 7.509 -5.947 14.57 -15.343 15.742 C 35.054 89.946 34.166 90 33.294 90 z M 35.227 64.432 c -0.796 0 -1.606 0.05 -2.425 0.151 c -8.302 1.035 -14.406 7.096 -13.606 13.51 c 0.799 6.414 8.205 10.784 16.507 9.756 c 8.301 -1.035 14.405 -7.096 13.606 -13.51 l 0 0 C 48.588 68.558 42.501 64.432 35.227 64.432 z" style="stroke: none; stroke-width: 1; stroke-dasharray: none; stroke-linecap: butt; stroke-linejoin: miter; stroke-miterlimit: 10; fill: rgb(0,0,0); fill-rule: nonzero; opacity: 1;" transform=" matrix(1 0 0 1 0 0) " stroke-linecap="round" />
	<rect x="49.38" y="1" rx="0" ry="0" width="2" height="74.42" style="stroke: none; stroke-width: 1; stroke-dasharray: none; stroke-linecap: butt; stroke-linejoin: miter; stroke-miterlimit: 10; fill: rgb(0,0,0); fill-rule: nonzero; opacity: 1;" transform=" matrix(1 0 0 1 0 0) "/>
	<path d="M 70.857 45.022 c -0.354 0 -0.687 -0.188 -0.867 -0.502 c -5.658 -9.848 -12.019 -14.071 -19.457 -12.902 c -0.286 0.047 -0.583 -0.038 -0.806 -0.228 c -0.222 -0.19 -0.35 -0.467 -0.35 -0.76 V 1 c 0 -0.552 0.447 -1 1 -1 c 0.553 0 1 0.448 1 1 c 0 8.885 4.861 12.133 10.008 15.571 c 6.683 4.464 14.258 9.525 10.45 27.657 c -0.085 0.406 -0.412 0.717 -0.822 0.782 C 70.961 45.018 70.908 45.022 70.857 45.022 z M 52.866 29.431 c 6.547 0 12.411 3.97 17.487 11.839 c 2.383 -14.712 -3.68 -18.762 -10.079 -23.037 c -3.368 -2.25 -6.807 -4.547 -8.898 -8.415 v 19.68 C 51.877 29.454 52.373 29.431 52.866 29.431 z" style="stroke: none; stroke-width: 1; stroke-dasharray: none; stroke-linecap: butt; stroke-linejoin: miter; stroke-miterlimit: 10; fill: rgb(0,0,0); fill-rule: nonzero; opacity: 1;" transform=" matrix(1 0 0 1 0 0) " stroke-linecap="round" />
</g>
</svg>